<svg width="300" height="80" viewBox="0 0 300 80" xmlns="http://www.w3.org/2000/svg">
  <path d="M0,60 C10,55 20,45 30,50 C40,55 50,65 60,40 C70,15 80,30 90,40 C100,50 110,20 120,25 C130,30 140,55 150,60 C160,65 170,55 180,45 C190,35 200,15 210,10 C220,5 230,20 240,15 C250,10 260,20 270,15 C280,10 290,20 300,25" fill="none" stroke="#6c4cd6" stroke-width="2" />
  <path d="M0,60 C10,55 20,45 30,50 C40,55 50,65 60,40 C70,15 80,30 90,40 C100,50 110,20 120,25 C130,30 140,55 150,60 C160,65 170,55 180,45 C190,35 200,15 210,10 C220,5 230,20 240,15 C250,10 260,20 270,15 C280,10 290,20 300,25" fill="url(#gradient)" fill-opacity="0.2" />
  <defs>
    <linearGradient id="gradient" x1="0%" y1="0%" x2="0%" y2="100%">
      <stop offset="0%" stop-color="#6c4cd6" stop-opacity="0.5" />
      <stop offset="100%" stop-color="#6c4cd6" stop-opacity="0" />
    </linearGradient>
  </defs>
</svg> 